<svg width="200" height="200" viewBox="0 0 200 200" xmlns="http://www.w3.org/2000/svg">
  <!-- Background circle -->
  <circle cx="100" cy="100" r="95" fill="#0891B2" opacity="0.1" stroke="#0891B2" stroke-width="2"/>
  
  <!-- Brain outline -->
  <g transform="translate(100, 80)">
    <!-- Left hemisphere -->
    <path d="M -30 -5 Q -40 -15 -35 -30 Q -25 -35 -15 -30 Q -10 -25 -12 -10 L -15 10 Q -25 15 -30 5 Z" 
          fill="none" stroke="#0891B2" stroke-width="2" stroke-linecap="round" stroke-linejoin="round"/>
    
    <!-- Right hemisphere -->
    <path d="M 30 -5 Q 40 -15 35 -30 Q 25 -35 15 -30 Q 10 -25 12 -10 L 15 10 Q 25 15 30 5 Z" 
          fill="none" stroke="#0891B2" stroke-width="2" stroke-linecap="round" stroke-linejoin="round"/>
    
    <!-- Center connection -->
    <line x1="-5" y1="-20" x2="5" y2="-20" stroke="#0891B2" stroke-width="2"/>
    <line x1="-5" y1="-5" x2="5" y2="-5" stroke="#0891B2" stroke-width="2"/>
  </g>
  
  <!-- Heart below -->
  <g transform="translate(100, 130)">
    <path d="M 0 5 C -8 -3 -15 -5 -15 -2 C -15 5 -8 12 0 18 C 8 12 15 5 15 -2 C 15 -5 8 -3 0 5 Z" 
          fill="#FB923C" opacity="0.9"/>
  </g>
  
  <!-- Text -->
  <text x="100" y="170" font-family="Arial, sans-serif" font-size="24" font-weight="bold" 
        text-anchor="middle" fill="#0891B2">Manoसाथी</text>
  
  <!-- Subtitle -->
  <text x="100" y="190" font-family="Arial, sans-serif" font-size="12" 
        text-anchor="middle" fill="#0891B2" opacity="0.7">Mental Wellness</text>
</svg>
